<?xml version="1.0" encoding="iso-8859-1"?>
<!-- Generator: Adobe Illustrator 16.0.0, SVG Export Plug-In . SVG Version: 6.00 Build 0)  -->
<!DOCTYPE svg PUBLIC "-//W3C//DTD SVG 1.1//EN" "http://www.w3.org/Graphics/SVG/1.1/DTD/svg11.dtd">
<svg version="1.1" id="Capa_1" xmlns="http://www.w3.org/2000/svg" xmlns:xlink="http://www.w3.org/1999/xlink" x="0px" y="0px"
	 width="124.475px" height="124.475px" viewBox="0 0 124.475 124.475" style="enable-background:new 0 0 124.475 124.475;"
	 xml:space="preserve" fill="#FFFAFA">
<g>
	<g>
		<path d="M65.335,48.618l-0.014-0.015l-0.016,0.015H65.3v0.004l-9.889,8.816l0.013,0.014v66.468h54.84V48.618H65.335z
			 M105.913,119.568H59.777v-13.742h46.136V119.568z M105.913,104.382H59.777V61.816l9.808,0.042l0.047-8.888h36.281V104.382z" fill="#FFFAFA"/>
		<path d="M63.744,100.1c0.832,0.833,2.185,0.833,3.017,0l6.143-6.142c0.525-0.526,0.721-1.257,0.582-1.935l1.429-1.431
			c3.228,2.416,7.835,2.16,10.767-0.772c3.213-3.213,3.213-8.443,0-11.656c-3.215-3.215-8.445-3.215-11.658,0
			c-2.932,2.931-3.189,7.537-0.771,10.764l-1.431,1.43c-0.679-0.138-1.408,0.057-1.935,0.582l-6.141,6.141
			C62.91,97.914,62.91,99.266,63.744,100.1z M75.687,79.83c2.294-2.295,6.029-2.295,8.326,0c2.295,2.296,2.295,6.031,0,8.326
			c-2.297,2.297-6.032,2.297-8.326,0C73.39,85.859,73.39,82.126,75.687,79.83z" fill="#FFFAFA"/>
		<rect x="95.964" y="73.061" width="3.131" height="30.357"/>
		<path d="M92.589,78.014h-3.131v3.652c0.201,0.797,0.315,1.621,0.315,2.466s-0.114,1.668-0.315,2.465v16.821h3.131V78.014z" fill="#FFFAFA"/>
		<path d="M82.661,103.418h3.133V92.07c-0.947,0.713-2.002,1.25-3.133,1.582V103.418z" fill="#FFFAFA"/>
		<path d="M75.604,93.66v9.758h3.131v-9.426c-0.568-0.062-1.124-0.176-1.667-0.332H75.604z" fill="#FFFAFA"/>
		<polygon points="68.446,100.938 68.446,103.418 71.577,103.418 71.577,98.539 70.845,98.539"/>
		<circle cx="38.698" cy="12.823" r="12.823"/>
		<path d="M64.626,46.895h10.979c-0.02-0.815-0.219-1.638-0.661-2.392c-1.392-2.372-4.44-3.166-6.813-1.777
			c-6.777,3.976-8.168,1.863-12.29-4.411c-2.09-3.181-4.459-6.786-8.06-8.995c-0.216-0.133-0.442-0.228-0.669-0.324
			c-1.428-0.952-3.03-1.653-4.666-2.054l-3.194,3.216l-3.098-3.251c-0.011,0.002-0.021,0.003-0.032,0.006
			c-1.669,0.399-3.307,1.115-4.76,2.092c-0.222,0.094-0.443,0.186-0.652,0.315c-0.46,0.28-0.916,0.554-1.369,0.827
			c-10.035,6.03-16.964,12.332-14.7,38.648c0.223,2.594,2.396,4.552,4.954,4.552c0.142,0,0.287-0.006,0.433-0.019
			c2.738-0.235,4.769-2.646,4.532-5.387c-0.936-10.872-0.216-17.121,1.567-21.159v19.612c0,1.34,0.26,2.59,0.716,3.739
			c-0.033,0.259-0.059,0.519-0.059,0.786l0.004,47.671c0,3.25,2.635,5.884,5.883,5.884c3.251-0.001,5.884-2.635,5.884-5.884
			l-0.003-40.912c0.232,0.013,0.466,0.03,0.7,0.03c0.045,0,0.091-0.006,0.137-0.006l-0.002,40.888c0,3.25,2.635,5.884,5.884,5.884
			c3.25,0,5.884-2.634,5.884-5.884l0.002-47.379c0.771-1.429,1.22-3.045,1.22-4.817V50.137c1.757,1.773,4.783,3.437,4.783,3.437
			L64.626,46.895z M39.282,55.537h-0.06l-3.093-4.231l3.093-20.672h0.06l3.092,20.672L39.282,55.537z" fill="#FFFAFA"/>
	</g>
</g>
<g>
</g>
<g>
</g>
<g>
</g>
<g>
</g>
<g>
</g>
<g>
</g>
<g>
</g>
<g>
</g>
<g>
</g>
<g>
</g>
<g>
</g>
<g>
</g>
<g>
</g>
<g>
</g>
<g>
</g>
</svg>
